<?xml version="1.0" encoding="utf-8"?>
<!-- Generator: Adobe Illustrator 23.0.1, SVG Export Plug-In . SVG Version: 6.00 Build 0)  -->
<svg version="1.1" id="Person1" xmlns="http://www.w3.org/2000/svg" xmlns:xlink="http://www.w3.org/1999/xlink" x="0px" y="0px"
	 viewBox="0 0 488.1 438.4" style="enable-background:new 0 0 488.1 438.4;" xml:space="preserve">
<g id="Layer_3">
	<g>
		<g>
			<g>
				<path d="M175.8,40c47.1,0,85.3,38.2,85.3,85.3s-38.2,85.3-85.3,85.3s-85.3-38.2-85.3-85.3S128.6,40,175.8,40 M175.8,5
					c-32.1,0-62.4,12.5-85.1,35.2s-35.2,52.9-35.2,85.1s12.5,62.4,35.2,85.1s52.9,35.2,85.1,35.2s62.4-12.5,85.1-35.2
					s35.2-52.9,35.2-85.1s-12.5-62.3-35.2-85S207.9,5,175.8,5L175.8,5z"/>
			</g>
		</g>
		<g>
			<path d="M128.6,237.3c2.8,0,5.6,0.5,8.3,1.6c15.4,6.2,31.6,6.6,36.1,6.6c0.8,0,1.2,0,1.2,0s0.3,0,1,0c4.6,0,25-0.4,39.7-6.4
				c2.5-1,5.1-1.5,7.7-1.5c2.9,0,5.7,0.6,8.4,1.7c69.8,29.5,81.1,100.1,82,136.6c0.3,12.4-9.6,22.6-21.9,22.6H60.5
				c-12.3,0-22.1-10.1-21.9-22.3c1.4-95.7,58.8-128.1,81.9-137.3C123.1,237.8,125.8,237.3,128.6,237.3 M128.6,202.3
				c-7.2,0-14.3,1.4-21,4c-17,6.7-41.7,20.3-63.3,46.5c-12.2,14.8-21.8,32-28.6,51C8,325.4,4,349.6,3.6,375.6
				C3.4,391,9.2,405.5,20,416.5c10.8,10.9,25.2,16.9,40.5,16.9h230.6c15.5,0,30-6.1,40.8-17.2s16.6-25.8,16.1-41.3
				c-0.6-21.2-4.2-53-18.3-84.4c-8-17.8-18.6-33.6-31.4-46.9c-14.9-15.6-33-27.9-53.8-36.6c-7-3-14.4-4.5-22-4.5
				c-7.3,0-14.4,1.4-21.1,4.2c-6.1,2.5-17.9,3.8-26.4,3.8c-0.1,0-0.3,0-0.3,0h-1.2H173h-0.1c-1.3,0-13.1-0.1-23.1-4.1
				C143.1,203.7,135.9,202.3,128.6,202.3L128.6,202.3z"/>
		</g>
	</g>
</g>
</svg>
