<?xml version="1.0" encoding="utf-8"?>
<!-- Generator: Adobe Illustrator 23.0.1, SVG Export Plug-In . SVG Version: 6.00 Build 0)  -->
<svg version="1.1" id="Person1" xmlns="http://www.w3.org/2000/svg" xmlns:xlink="http://www.w3.org/1999/xlink" x="0px" y="0px"
	 viewBox="0 0 488.1 438.4" style="enable-background:new 0 0 488.1 438.4;" xml:space="preserve">
<g id="Layer_3">
	<g>
		<g>
			<path d="M359.1,237.5c2.9,0,5.7,0.6,8.4,1.7c69.8,29.5,81.1,100.1,82,136.6c0.3,12.4-9.6,22.6-21.9,22.6l-83.9,0.1
				c0,0,4.1-9.9,4.2-17.2c0.3-10.8-0.6-23.2-1.5-28.9c-4-24.5-3.4-26.4-10.4-47.4c-16.1-48.4-41-60.1-37-60.1c0.1,0,0.3,0,0.5,0
				c3.6,0.4,6.7,0.6,9.1,0.6c0.8,0,1.5,0,2.2,0c0.6,0,1.3,0,2,0c3,0,7.2-0.2,12.1-0.7c8.1-0.7,18.2-2.4,26.6-5.8
				C353.9,238,356.5,237.5,359.1,237.5 M359.1,202.5L359.1,202.5L359.1,202.5c-7.3,0-14.4,1.4-21.1,4.2c-1.7,0.7-6.7,2.4-16.5,3.3
				c-5.2,0.5-8.1,0.5-8.9,0.5c-0.3,0-0.5,0-0.5,0l-1.3-0.1h-1.3c-0.3,0-0.7,0-1.1,0c-1.6,0-3.2-0.1-4.8-0.3
				c-1.6-0.2-3.2-0.3-4.7-0.3c-14.8,0-27.7,8.8-33,22.5c-5,13-2,27.4,7.9,37.7c1.2,1.2,2.3,2.2,3.3,3.2c4.5,4.1,16.4,15,25.7,42.8
				c4.7,14.1,5.1,16.5,7.1,29.7c0.5,3.5,1.1,7.4,1.9,12.3c0.5,3,1.3,12.8,1.1,21.8c-0.3,1.5-1.2,4.3-1.6,5.4l-19.9,48.4l52.3-0.1
				l83.9-0.1c15.4,0,29.9-6.1,40.7-17.2c10.8-11.1,16.6-25.8,16.1-41.3c-0.6-21.2-4.2-53-18.3-84.4c-8-17.8-18.6-33.6-31.4-46.9
				c-14.9-15.6-33-27.9-53.8-36.6C374.1,204,366.7,202.5,359.1,202.5L359.1,202.5z"/>
		</g>
		<g>
			<path d="M312.3,39.9c47.1,0,85.3,38.2,85.3,85.3s-38.2,85.3-85.3,85.3c-15.2,0-29.5-4-41.8-10.9c34.1-45,32.5-110.6-0.1-148.7
				C282.7,43.9,297,39.9,312.3,39.9 M312.3,4.9c-20.7,0-41.2,5.4-59.1,15.5l-37.1,20.9l27.7,32.3c10.5,12.2,16.5,30.2,16.7,49.3
				c0.2,20.4-6.2,40.1-17.9,55.6l-24.2,32l34.9,19.7c17.9,10.1,38.3,15.4,59,15.4c32.1,0,62.4-12.5,85.1-35.2s35.2-52.9,35.2-85.1
				s-12.5-62.4-35.2-85.1S344.4,4.9,312.3,4.9L312.3,4.9z"/>
		</g>
		<g>
			<g>
				<path d="M175.8,40c47.1,0,85.3,38.2,85.3,85.3s-38.2,85.3-85.3,85.3s-85.3-38.2-85.3-85.3S128.6,40,175.8,40 M175.8,5
					c-32.1,0-62.4,12.5-85.1,35.2s-35.2,52.9-35.2,85.1s12.5,62.4,35.2,85.1s52.9,35.2,85.1,35.2s62.4-12.5,85.1-35.2
					s35.2-52.9,35.2-85.1s-12.5-62.3-35.2-85S207.9,5,175.8,5L175.8,5z"/>
			</g>
		</g>
		<g>
			<path d="M128.6,237.3c2.8,0,5.6,0.5,8.3,1.6c15.4,6.2,31.6,6.6,36.1,6.6c0.8,0,1.2,0,1.2,0s0.3,0,1,0c4.6,0,25-0.4,39.7-6.4
				c2.5-1,5.1-1.5,7.7-1.5c2.9,0,5.7,0.6,8.4,1.7c69.8,29.5,81.1,100.1,82,136.6c0.3,12.4-9.6,22.6-21.9,22.6H60.5
				c-12.3,0-22.1-10.1-21.9-22.3c1.4-95.7,58.8-128.1,81.9-137.3C123.1,237.8,125.8,237.3,128.6,237.3 M128.6,202.3
				c-7.2,0-14.3,1.4-21,4c-17,6.7-41.7,20.3-63.3,46.5c-12.2,14.8-21.8,32-28.6,51C8,325.4,4,349.6,3.6,375.6
				C3.4,391,9.2,405.5,20,416.5c10.8,10.9,25.2,16.9,40.5,16.9h230.6c15.5,0,30-6.1,40.8-17.2s16.6-25.8,16.1-41.3
				c-0.6-21.2-4.2-53-18.3-84.4c-8-17.8-18.6-33.6-31.4-46.9c-14.9-15.6-33-27.9-53.8-36.6c-7-3-14.4-4.5-22-4.5
				c-7.3,0-14.4,1.4-21.1,4.2c-6.1,2.5-17.9,3.8-26.4,3.8c-0.1,0-0.3,0-0.3,0h-1.2H173h-0.1c-1.3,0-13.1-0.1-23.1-4.1
				C143.1,203.7,135.9,202.3,128.6,202.3L128.6,202.3z"/>
		</g>
	</g>
</g>
</svg>
