<?xml version="1.0" encoding="utf-8"?>
<!-- Generator: Adobe Illustrator 23.0.1, SVG Export Plug-In . SVG Version: 6.00 Build 0)  -->
<svg version="1.1" id="Capa_1" xmlns="http://www.w3.org/2000/svg" xmlns:xlink="http://www.w3.org/1999/xlink" x="0px" y="0px"
	 viewBox="0 0 648.1 512" style="enable-background:new 0 0 648.1 512;" xml:space="preserve">
<path d="M504.5,208.3c-4.1,0-7.5,3.4-7.5,7.5v40.6H391.7V151.1h40.6c4.1,0,7.5-3.4,7.5-7.5s-3.4-7.5-7.5-7.5H167.7
	c-17.4,0-31.6,14.2-31.6,31.6v312.8c0,17.4,14.2,31.6,31.6,31.6h312.8c17.4,0,31.6-14.2,31.6-31.6V215.8
	C512,211.7,508.6,208.3,504.5,208.3L504.5,208.3z M497,271.4v105.3H391.7V271.4H497z M271.4,376.7V271.4h105.3v105.3H271.4z
	 M376.7,391.7V497H271.4V391.7H376.7z M151.1,271.4h105.3v105.3H151.1V271.4z M376.7,256.4H271.4V151.1h105.3V256.4z M167.7,151.1
	h88.7v105.3H151.1v-88.7C151.1,158.6,158.6,151.1,167.7,151.1z M151.1,480.4v-88.7h105.3V497h-88.7
	C158.6,497,151.1,489.6,151.1,480.4L151.1,480.4z M480.4,497h-88.7V391.7H497v88.7C497,489.6,489.6,497,480.4,497z"/>
<path d="M643.6,38.6l-34-34c-6.1-6.1-15.9-6.1-21.9,0L463.4,128.8c-0.8,0.8-1.3,1.7-1.7,2.6l0,0l-28.4,73.7c-1.1,2.8-0.4,5.9,1.7,8
	c1.4,1.4,3.4,2.2,5.3,2.2c0.9,0,1.8-0.2,2.7-0.5l73.7-28.4l0,0c1-0.4,1.8-0.9,2.6-1.7L643.6,60.5C649.6,54.5,649.6,44.6,643.6,38.6
	L643.6,38.6z M471.6,147.5l29,29l-47.2,18.2L471.6,147.5z M633,49.9L514.1,168.8L502,156.7l15.8-15.8c2.9-2.9,2.9-7.7,0-10.6
	c-2.9-2.9-7.7-2.9-10.6,0l-15.8,15.8l-12.1-12.1L598.2,15.1c0.2-0.2,0.5-0.2,0.7,0l11.7,11.7l-79.4,79.4c-2.9,2.9-2.9,7.7,0,10.6
	c1.5,1.5,3.4,2.2,5.3,2.2c1.9,0,3.8-0.7,5.3-2.2l79.4-79.4L633,49.2C633.2,49.4,633.2,49.7,633,49.9L633,49.9z"/>
<path d="M334.7,324.1l22.8-22.8c2.9-2.9,2.9-7.7,0-10.6c-2.9-2.9-7.7-2.9-10.6,0l-22.8,22.8l-22.8-22.8c-2.9-2.9-7.7-2.9-10.6,0
	c-2.9,2.9-2.9,7.7,0,10.6l22.8,22.8l-22.8,22.8c-2.9,2.9-2.9,7.7,0,10.6c1.5,1.5,3.4,2.2,5.3,2.2c1.9,0,3.8-0.7,5.3-2.2l22.8-22.8
	l22.8,22.8c1.5,1.5,3.4,2.2,5.3,2.2c1.9,0,3.8-0.7,5.3-2.2c2.9-2.9,2.9-7.7,0-10.6L334.7,324.1z"/>
<path d="M433.7,324.1L411,346.8c-2.9,2.9-2.9,7.7,0,10.6c1.5,1.5,3.4,2.2,5.3,2.2c1.9,0,3.8-0.7,5.3-2.2l22.8-22.8l22.8,22.8
	c1.5,1.5,3.4,2.2,5.3,2.2s3.8-0.7,5.3-2.2c2.9-2.9,2.9-7.7,0-10.6L455,324.1l22.8-22.8c2.9-2.9,2.9-7.7,0-10.6
	c-2.9-2.9-7.7-2.9-10.6,0l-22.8,22.8l-22.8-22.8c-2.9-2.9-7.7-2.9-10.6,0c-2.9,2.9-2.9,7.7,0,10.6L433.7,324.1z"/>
<path d="M214.4,444.4l22.8-22.8c2.9-2.9,2.9-7.7,0-10.6c-2.9-2.9-7.7-2.9-10.6,0l-22.8,22.8L181,411c-2.9-2.9-7.7-2.9-10.6,0
	c-2.9,2.9-2.9,7.7,0,10.6l22.8,22.8l-22.8,22.8c-2.9,2.9-2.9,7.7,0,10.6c1.5,1.5,3.4,2.2,5.3,2.2c1.9,0,3.8-0.7,5.3-2.2l22.8-22.8
	l22.8,22.8c1.5,1.5,3.4,2.2,5.3,2.2s3.8-0.7,5.3-2.2c2.9-2.9,2.9-7.7,0-10.6L214.4,444.4z"/>
<path d="M203.8,239.3c19.6,0,35.6-16,35.6-35.6s-16-35.6-35.6-35.6s-35.6,16-35.6,35.6S184.2,239.3,203.8,239.3L203.8,239.3z
	 M203.8,183.2c11.3,0,20.6,9.2,20.6,20.6s-9.2,20.6-20.6,20.6c-11.3,0-20.6-9.2-20.6-20.6S192.4,183.2,203.8,183.2z"/>
<path d="M324.1,239.3c19.6,0,35.6-16,35.6-35.6s-16-35.6-35.6-35.6s-35.6,16-35.6,35.6S304.4,239.3,324.1,239.3L324.1,239.3z
	 M324.1,183.2c11.3,0,20.6,9.2,20.6,20.6s-9.2,20.6-20.6,20.6s-20.6-9.2-20.6-20.6S312.7,183.2,324.1,183.2z"/>
<path d="M324.1,479.9c19.6,0,35.6-16,35.6-35.6c0-19.6-16-35.6-35.6-35.6s-35.6,16-35.6,35.6C288.5,464,304.4,479.9,324.1,479.9z
	 M324.1,423.8c11.3,0,20.6,9.2,20.6,20.6s-9.2,20.6-20.6,20.6s-20.6-9.2-20.6-20.6S312.7,423.8,324.1,423.8z"/>
</svg>
